# xmcd
#
# Track frame offsets:
#	150
#	18789
#	38289
#	55742
#	67151
#	81775
#	99833
#	122394
#	141031
#	153182
#
# Disc length: 2286 seconds
#
# Revision: 0
# Processed by: cddbd v1.5.2PL0 Copyright (c) Steve Scherf et al.
# Submitted via: EasyCDDAExtractor 9.0.0.1
#
DISCID=6908ec0a
DTITLE=Sfora Tadziora - ¯ycie w drodze
DYEAR=2003
DGENRE=Country
TTITLE0=¯ycie w drodze
TTITLE1=W¹skotorówka
TTITLE2=Kowbojskie ¿ycie
TTITLE3=Czarna wo³ga
TTITLE4=Daleka droga
TTITLE5=Placki u mamy
TTITLE6=Poci¹g do Veracruz
TTITLE7=G³upia nadzieja
TTITLE8=Moja historia
TTITLE9=Ma³y i du¿y (I've Just Seen A Face - Lennon/McCartney)
EXTD=
EXTT0=
EXTT1=
EXTT2=
EXTT3=
EXTT4=
EXTT5=
EXTT6=
EXTT7=
EXTT8=
EXTT9=
PLAYORDER=
